<?xml version="1.0" standalone="no"?>
<!DOCTYPE svg PUBLIC "-//W3C//DTD SVG 20010904//EN"
 "http://www.w3.org/TR/2001/REC-SVG-20010904/DTD/svg10.dtd">
<svg version="1.0" xmlns="http://www.w3.org/2000/svg"
 width="1000.000000pt" height="1000.000000pt" viewBox="0 0 1000.000000 1000.000000"
 preserveAspectRatio="xMidYMid meet">
<metadata>
Created by potrace 1.14, written by Peter Selinger 2001-2017
</metadata>
<g transform="translate(0.000000,1000.000000) scale(0.100000,-0.100000)"
fill="#000000" stroke="none">
<path d="M0 5000 l0 -5000 5000 0 5000 0 0 5000 0 5000 -5000 0 -5000 0 0
-5000z m6281 3743 c18 -61 23 -212 7 -258 -12 -37 -16 -40 -53 -43 -84 -5
-193 -35 -275 -75 -156 -76 -292 -241 -344 -416 -9 -30 -16 -57 -16 -59 0 -3
22 16 49 41 122 115 308 155 493 108 112 -29 193 -74 269 -150 76 -77 119
-156 150 -281 28 -111 23 -322 -9 -413 -37 -103 -85 -180 -157 -253 -83 -84
-166 -132 -290 -170 -80 -24 -106 -27 -230 -27 -164 1 -253 20 -368 80 -232
122 -354 412 -333 794 17 319 104 579 258 772 159 201 429 343 716 376 126 14
120 15 133 -26z m2709 9 c110 -43 199 -131 241 -239 18 -45 23 -79 23 -153 1
-87 -2 -101 -31 -162 -80 -169 -224 -255 -413 -246 -74 3 -98 9 -154 37 -178
87 -272 290 -222 476 38 143 134 245 281 298 67 24 198 18 275 -11z m-1302
-168 c112 -24 204 -75 292 -163 90 -91 132 -160 176 -289 48 -142 66 -269 66
-457 1 -494 -180 -811 -517 -906 -103 -29 -295 -32 -395 -6 -324 85 -505 373
-527 837 -15 317 71 629 217 792 161 180 410 249 688 192z m-2924 -31 c14 -27
9 -36 -205 -390 l-218 -362 47 -6 c216 -28 363 -169 409 -390 30 -146 -5 -337
-87 -476 -84 -142 -246 -255 -438 -306 -87 -23 -117 -26 -282 -27 -198 -1
-270 9 -431 60 l-79 25 0 38 c0 71 74 292 98 291 4 0 57 -14 117 -31 145 -41
335 -51 445 -24 130 32 235 127 259 235 18 79 13 141 -15 198 -29 58 -65 90
-140 124 -45 21 -64 23 -223 24 -164 1 -175 2 -184 21 -7 15 28 85 171 344
l180 324 -298 3 -299 2 -7 48 c-10 61 -10 194 0 255 l7 47 579 0 579 0 15 -27z
m2326 -2438 l0 -115 -1055 0 -1055 0 0 115 0 115 1055 0 1055 0 0 -115z m2200
0 l0 -115 -1055 0 -1055 0 0 115 0 115 1055 0 1055 0 0 -115z m-7767 -135 l87
-13 0 -835 0 -835 22 29 c124 165 337 287 578 330 48 8 146 15 227 15 763 1
1250 -512 1334 -1405 15 -161 7 -506 -15 -636 -65 -379 -209 -673 -446 -910
-130 -130 -246 -213 -415 -296 -200 -99 -400 -158 -660 -196 -117 -17 -582
-17 -730 0 -306 35 -513 75 -703 133 l-102 32 0 2288 0 2287 103 11 c56 7 111
14 122 16 46 8 517 -4 598 -15z m4994 -1326 c326 -50 565 -214 692 -477 l37
-78 54 81 c148 225 382 403 605 460 155 40 433 42 610 5 424 -89 653 -343 747
-830 21 -108 22 -134 25 -1321 l4 -1211 -113 -14 c-148 -18 -538 -18 -685 0
l-112 14 -4 1051 c-4 1133 -3 1108 -58 1279 -62 193 -217 278 -451 248 -254
-33 -396 -160 -472 -423 -42 -146 -46 -246 -46 -1228 l0 -927 -112 -14 c-148
-18 -599 -16 -718 3 l-85 13 -6 1075 c-5 1138 -4 1107 -50 1250 -37 114 -107
192 -205 230 -48 19 -79 23 -169 23 -272 0 -429 -106 -524 -353 -66 -169 -65
-154 -71 -1240 l-5 -985 -85 -14 c-117 -19 -621 -19 -740 0 l-85 14 -3 1656
-2 1657 65 11 c187 33 389 36 565 10 110 -16 120 -19 134 -47 16 -32 60 -222
77 -339 l12 -82 30 47 c79 124 213 255 340 331 66 39 205 97 282 116 135 33
340 37 522 9z"/>
<path d="M5779 7726 c-134 -48 -199 -165 -186 -336 12 -149 56 -235 147 -284
149 -81 341 -13 401 142 29 76 32 230 6 315 -23 74 -82 137 -152 160 -57 20
-165 21 -216 3z"/>
<path d="M8765 8521 c-99 -60 -124 -187 -53 -276 69 -88 227 -66 277 38 26 53
26 99 2 152 -43 93 -149 134 -226 86z"/>
<path d="M7405 8236 c-61 -28 -98 -70 -136 -151 -46 -98 -63 -214 -62 -420 1
-269 33 -400 124 -500 60 -65 127 -92 200 -81 128 19 209 128 245 331 20 110
20 403 -1 520 -44 255 -199 381 -370 301z"/>
<path d="M2021 3884 c-136 -36 -271 -144 -329 -264 -18 -36 -42 -103 -54 -150
-23 -84 -23 -91 -23 -775 l0 -690 55 -13 c88 -21 406 -20 505 2 181 40 311
111 424 232 107 115 173 262 208 464 20 116 22 445 4 569 -55 371 -193 567
-443 626 -81 19 -275 19 -347 -1z"/>
</g>
</svg>
